<svg version="1.2" xmlns="http://www.w3.org/2000/svg" viewBox="0 0 512 512" width="512" height="512">
	<defs>
		<linearGradient id="g1" x2="1" gradientUnits="userSpaceOnUse" gradientTransform="matrix(409.6,512,-512,409.6,51.2,0)">
			<stop offset="0" stop-color="#0cd496"/>
			<stop offset=".5" stop-color="#059669"/>
			<stop offset="1" stop-color="#036344"/>
		</linearGradient>
		<linearGradient id="g2" x2="1" gradientUnits="userSpaceOnUse" gradientTransform="matrix(512,512,-512,512,0,0)">
			<stop offset="0" stop-color="#ffffff" stop-opacity=".75"/>
			<stop offset=".25" stop-color="#ffffff" stop-opacity=".15"/>
			<stop offset=".7" stop-color="#000000" stop-opacity="0"/>
			<stop offset="1" stop-color="#000000" stop-opacity=".4"/>
		</linearGradient>
	</defs>
	<style>
		.s0 { fill: url(#g1) } 
		.s1 { fill: none;stroke: url(#g2);stroke-width: 6.9 } 
		.s2 { fill: #000000 } 
	</style>
	<g id="Squircle">
		<path id="Fondo" class="s0" d="m512 256c0 176.73-79.27 256-256 256-176.73 0-256-79.27-256-256 0-176.73 79.27-256 256-256 176.73 0 256 79.27 256 256z"/>
		<path id="BordeSombreado" class="s1" d="m512 256c0 176.73-79.27 256-256 256-176.73 0-256-79.27-256-256 0-176.73 79.27-256 256-256 176.73 0 256 79.27 256 256z"/>
	</g>
	<filter id="f0">
		<feFlood flood-color="#ffffff" flood-opacity="1" />
		<feBlend mode="normal" in2="SourceGraphic"/>
		<feComposite in2="SourceAlpha" operator="in" />
	</filter>
	<g id="Logo" filter="url(#f0)">
		<path id="Mountains" class="s2" d="m187.38 192.83c-11.56 9.68-27.68 23.17-35.79 29.76l-14.63 12.16-17.7-9.37c-12.96-6.8-18.4-9.28-20.08-8.75-1.18 0.3-14.24 10.6-28.87 22.86-14.63 12.25-32.43 27.29-39.65 33.27-7.12 5.97-12.85 11.02-12.66 11.22 0.3 0.31 35.4-19.67 47.47-27.08 30.25-18.75 40.34-24.32 42.51-23.8 1.29 0.31 11.67 5.05 23.24 10.4l20.96 9.79 17.9-17.93c16.81-16.68 32.83-31.71 41.33-38.82l3.66-2.99 20.67 20.49 20.56 20.61 2.67-3.3c2.38-2.99 2.87-3.19 5.44-2.16 1.48 0.72 8.7 3.81 16.02 7 7.22 3.2 13.55 5.77 14.14 5.77 0.99 0-8.41-8.45-26.2-23.38l-11.67-9.89-3.07 2.37-2.96 2.26 0.69-4.11 0.59-4.13-9.69-7.61c-18.29-14.43-29.66-22.46-31.74-22.46-1.18 0-11.07 7.63-23.14 17.82z"/>
		<path id="Sun" class="s2" d="m195.04 109.71c-29.96 10.58-52.51 43.23-51.95 75.3 0.27 20.62 4.67 32.92 4.94 13.74 0.55-38.07 29.14-74.16 63.77-80.74 14.3-2.57 35.46 2.87 53.05 14.03 13.46 8.59 14.84 8.88 10.99 2.87-14.56-23.48-53.05-35.51-80.8-25.2z"/>
		<path id="Runner" fill-rule="evenodd" class="s2" d="m414.41 111.15c18-0.1 27.49 19.06 16.12 32.65-8.11 9.68-23.24 9.99-31.54 0.72-8.61-9.68-5.44-25.03 6.62-31.61 1.68-0.93 5.44-1.66 8.8-1.76zm-25.02 40.28c9.4 4.83 18.79 11.32 32.93 22.34 5.44 4.33 11.27 8.04 13.25 8.55 7.81 1.75 22.55-4.32 37.18-15.34 4.25-3.2 8.7-6.59 9.89-7.42 1.88-1.44 1.88-1.24-0.4 2.58-10.58 18.23-24.42 34.4-34.61 40.16-4.64 2.68-6.42 3.1-12.95 3.1-7.41 0-7.81-0.21-21.46-7.32l-13.84-7.2-19.38 23.47-4.55-0.61c-2.47-0.31-8.7-1.24-13.84-2.17-5.14-0.82-12.86-1.54-17.21-1.54-8.89 0-8.8 0.31-2.76-9.06 2.17-3.2 6.23-10.2 8.99-15.45 5.05-9.27 5.24-9.48 8.8-9.48 1.98 0 6.53 0.51 9.99 1.03 3.46 0.62 6.43 0.93 6.72 0.72 0.2-0.31-4.25-2.57-9.98-5.14-23.34-10.72-39.85-12.06-62.59-5.26-8.9 2.57-25.91 10.71-36.29 17.3-3.17 2.06-5.93 3.6-6.13 3.51-0.69-0.73 13.94-17.21 21.26-23.9 14.83-13.6 31.54-22.77 45.98-25.24 17.1-2.99 41.03 1.86 61 12.37zm-48.64 66.84c24.22 0 63.48 10.09 77.81 19.98 9.1 6.18 10.98 12.77 6.43 22.15-4.65 9.37-20.86 23.68-43.41 38.41-10.87 7.01-44.3 25.54-46.17 25.54-0.4 0 2.57-3.08 6.52-6.89 15.13-14.31 37.77-38.21 43.01-45.32 6.23-8.45 6.83-12.16 2.18-14.53-1.38-0.71-9.69-1.75-18.29-2.26-31.35-2.16-37.58-2.88-41.73-5.05-5.34-2.88-7.02-5.66-7.02-11.95 0-5.35 3.07-11.94 8.21-17.82 1.88-2.05 2.86-2.26 12.46-2.26zm-26.6 28.32c0 2.47 5.73 8.45 10.38 10.71 2.37 1.14 8.11 2.78 12.56 3.51l8.2 1.23-7.81 6.7c-30.16 25.96-76.63 55.42-118.95 75.6-7.81 3.71-14.14 6.6-14.14 6.39 0-0.21 10.98-9.99 24.42-21.83 25.91-22.78 57.16-53.88 73.67-73.24 9.2-10.82 11.67-12.77 11.67-9.07z"/>
		<path id="RunnersAura" class="s2" d="m246.41 270.91c-51.02 5.04-93.14 13.17-125.08 24.19-61.01 21.12-72.97 46.76-31.64 68.4 36.29 19.05 110.15 33.06 208.64 39.76 26.99 1.75 149.21 3.71 150.69 2.26 0.59-0.41-0.99-0.82-3.46-0.82-4.75 0-31.74-2.68-68.13-6.7-106.59-11.95-193.21-30.69-229.89-49.65-7.72-4.01-16.91-11.22-19.19-15.13-2.37-4.02-2.67-9.79-0.59-13.91 4.15-8.45 21.56-19.26 44-27.39 19.38-7.01 63.98-17.93 80.39-19.68 3.66-0.41 6.92-1.14 7.22-1.54 0.59-1.03-0.4-1.03-12.96 0.21z"/>
	</g>
</svg>